<svg xmlns="http://www.w3.org/2000/svg" xmlns:xlink="http://www.w3.org/1999/xlink" viewBox="0 0 221.6 69.62"><defs><style>.cls-1{fill:url(#Degradado_sin_nombre_18);}.cls-2{fill:url(#Degradado_sin_nombre_18-2);}.cls-3{font-size:27.76px;fill:#d01c5a;font-family:BrandonGrotesque-Black, Brandon Grotesque;font-weight:800;}</style><linearGradient id="Degradado_sin_nombre_18" x1="20.16" y1="60.4" x2="34.31" y2="60.4" gradientUnits="userSpaceOnUse"><stop offset="0" stop-color="#331a3f"/><stop offset="0.08" stop-color="#431e43"/><stop offset="0.18" stop-color="#4e2046"/><stop offset="0.28" stop-color="#522147"/><stop offset="0.67" stop-color="#892a4e"/><stop offset="0.89" stop-color="#b61555"/><stop offset="1" stop-color="#d10c5a"/></linearGradient><linearGradient id="Degradado_sin_nombre_18-2" x1="0" y1="33.31" x2="95.71" y2="33.31" xlink:href="#Degradado_sin_nombre_18"/></defs><g id="Capa_2" data-name="Capa 2"><g id="Capa_1-2" data-name="Capa 1"><polygon class="cls-1" points="20.16 60.4 20.16 67.91 34.31 67.91 34.31 52.9 27.23 52.9 20.16 60.4"/><path class="cls-2" d="M79.15,15.31c-1.25-2.55-1-7.09,2.23-9.2a7.55,7.55,0,0,1,9.21,1.26L94,3.8A11.17,11.17,0,0,0,90,.86,15.24,15.24,0,0,0,85.17,0,12.8,12.8,0,0,0,82.6,25.34L74.76,50.73Q63.12,27.58,51.46,4.44h-12L26.59,31,13.72,4.44H0L20.58,44.75H33.45L45.42,18,66.9,66.62l17.92-1.83L95.71,17.94C88.08,21.18,81.09,19.25,79.15,15.31Z"/><text class="cls-3" transform="translate(102.61 25.48)">ROLLING<tspan x="0" y="33.31">DESING</tspan></text></g></g></svg>